<svg enable-background="new 0 0 230 60" viewBox="0 0 230 60" xmlns="http://www.w3.org/2000/svg"><g fill="#4d3f55"><path d="m86.1 8.5c-2-2-5.1-3.2-7.9-3.2-2.9 0-6.5 1.1-6.5 4.6 0 6.9 17.3 6.8 17.3 16.1 0 5.4-5.6 10.4-13.5 10.4-3.1 0-6.2-.5-9-1.5l-1.5-6.2c3 2.6 7.1 4.2 11 4.2 2.9 0 7.2-1.7 7.2-5.2 0-7.9-17.3-6.5-17.3-17.1 0-6.4 6.5-8.8 12.7-8.8 2.5 0 5.1.4 7.5 1.1z"/><path d="m113.3 36.4c-3.3-.2-6.7-1.2-6.7-5.2v-8c-1.5.8-3.2 1.2-4.8 1.6-2.4.6-5.1 1.1-5.1 4.2s2.8 4.1 5.5 4.1c1.2 0 2.4-.4 3.6-.7l-3 3.8c-.9.2-1.8.3-2.6.3-5.1 0-8.6-3.2-8.6-7.4 0-9.4 15.1-5 15.1-10.5 0-2.4-3-3.2-4.8-3.2-2.6 0-4.6 1-6.9 2l3.4-5 3.3-.3c5.4 0 9.6 1.6 9.6 7.7v7.6c0 4 .1 5.5 4.3 6z"/><path d="m115.9 12.5c1.6 0 3 .2 4.1-.6h.2c.1.6.4 1.7.8 2.5l7.3 16.3 5.8-12.5c1-2.1 2.1-4.5-.6-5.6v-.2h7.2l-11.4 24.1c-2.9-1.7-4.2-2.3-5.5-5.2l-6.2-13.3c-1.2-2.7-1.4-3.7-4.5-5.4v-.2h2.8z"/><path d="m145.9 12.5c1.2 0 2.4-.1 3.3-.8h.2v18.4c0 2.3-.3 4.2 1.9 5.4v.2h-8.4v-.2c2.2-1.3 1.9-3.1 1.9-5.4v-12.1c0-2.3.3-4.1-1.9-5.4v-.2h3zm1-3c-1.9 0-3.3-1.5-3.3-3.3s1.6-3 3.3-3 3 1.5 3 3.1-1.3 3.2-3 3.2z"/><path d="m157.7 12.5c1.1 0 2.3-.1 3.4-.7h.2v3.9c1.8-2.4 3.8-3.9 7.1-3.9 2.8 0 6.1 1.1 7.7 3.5 1.4 2 1.3 5.1 1.3 7.5v7.3c0 2.3-.3 4.1 1.9 5.4v.2h-8.4v-.2c2.2-1.3 1.9-3.1 1.9-5.4v-6.8c0-5.4-1.5-8.2-6.1-8.2s-5.3 3.1-5.3 6.1v8.9c0 2.3-.3 4.1 1.9 5.4v.2h-8.4v-.2c2.2-1.3 1.9-3.1 1.9-5.4v-12c0-2.3.3-4.2-1.9-5.4v-.2z"/><path d="m208 11.8-1.2 2.6c-.4.9-.5 1.2-1.6 1.2-1.8 0-3.5-.4-5.2-.7 2.1 1.4 3.6 3.5 3.6 6.1 0 5.7-6.2 7.5-10.7 7.9-.7.1-2.1.5-2.1 1.4 0 1.1 2.4 1 3 1 8.7 0 13.4 2.4 13.4 7.4 0 5.7-6.3 8.9-14.2 8.9-7.4 0-14-2.9-14-7.2 0-2.8 2.3-4.1 4.8-4.1 1.1 0 1.9.2 2.9.7-1.3.3-1.9 1-1.9 2.3 0 4.2 5 5 8.3 5s8.9-1 8.9-5.2c0-4.4-7.2-4.7-10.3-4.7l-3.5.1c-2.2.1-3.7-1.8-3.7-3.6 0-1.5 2.9-2.2 4-2.7-3.6-.7-6.7-4-6.7-7.8 0-5.9 5.6-8.6 10.8-8.6h15.4zm-14.7 13.9c3 0 5.2-2 5.2-4.9 0-3.2-2.7-5.6-6.3-5.6-2.8 0-5.1 1.5-5.1 4.4 0 3.3 2.9 6.1 6.2 6.1z"/><path d="m225.7 16.8c-1.9-1-4-1.6-6.2-1.6-1.7 0-4.7.4-4.7 2.4 0 4.5 13.7 2.9 13.7 10.9 0 4.7-4.8 7.9-11.3 7.9-2.3 0-4.4-.4-6.6-1.2l-1.8-4.9c2.9 1.9 6 2.8 9.5 2.8 2.1 0 5.5-.7 5.5-3.3 0-5.1-13.7-3.5-13.7-11.1 0-5.3 5.5-6.8 9.9-6.8 1.9 0 3.8.2 5.6.7v4.2z"/><path d="m90.7 46c-.9-.9-2.3-1.4-3.5-1.4-1.3 0-2.9.5-2.9 2 0 3.1 7.7 3 7.7 7.2 0 2.4-2.5 4.7-6 4.7-1.4 0-2.7-.2-4-.7l-.7-2.8c1.3 1.1 3.2 1.9 4.9 1.9 1.3 0 3.2-.8 3.2-2.3 0-3.5-7.7-2.9-7.7-7.6 0-2.8 2.9-3.9 5.6-3.9 1.1 0 2.3.2 3.4.5z"/><path d="m93.3 53.1c0-3.4 2.7-5.6 6-5.6 1.4 0 2.7.4 3.8 1.3 1.1 1 1.8 2.5 1.8 4 0 3.2-2.7 5.6-5.9 5.6-3.1.1-5.7-2.1-5.7-5.3zm9.3.2c0-2.2-1.2-4.3-3.6-4.3-2.1 0-3.4 1.6-3.4 3.7s1.2 4.3 3.5 4.3c2 0 3.5-1.6 3.5-3.7z"/><path d="m107.4 43.4c.5 0 1.1 0 1.4-.4h.1v12.7c0 1-.2 1.9.8 2.4v.1h-3.7v-.1c1-.6.8-1.4.8-2.4v-9.8c0-1 .1-1.9-.8-2.4v-.1z"/><path d="m119.2 47.8c.6 0 1.3.1 1.7-.3h.1v8.2c0 1-.1 1.9.9 2.4v.1h-2.9v-1.5c-.8 1.2-1.7 1.8-3.2 1.8-2.7 0-3.9-1.5-3.9-4.7v-3.5c0-1 .1-1.9-.9-2.4v-.1h1.5c.5 0 1.1 0 1.4-.3h.1v5.9c0 2.1.6 3.4 2.5 3.4 1.5 0 2.6-1.2 2.6-2.9v-3.5c0-1.1.1-1.9-.9-2.5v-.1z"/><path d="m126.3 53.8c0 .9-.3 3.2 2.1 3.2.3 0 .6-.1.9-.2l-1.2 1.6c-.2.1-.5.1-.7.1-3.5 0-3.2-3.6-3.2-4.5v-4.7h-1.5v-.8c2.1-.4 2.7-1.9 2.7-4h.9v3.4h2.1c.3 0 .6 0 .9-.1h.1v2h-.1c-.4-.5-1-.4-1.6-.4h-1.3v4.4z"/><path d="m132 47.8c.5 0 1.1 0 1.5-.4h.1v8.2c0 1-.1 1.9.9 2.4v.1h-3.8v-.1c1-.6.9-1.4.9-2.4v-5.4c0-1 .1-1.8-.9-2.4v-.1h1.3zm.4-1.3c-.8 0-1.5-.7-1.5-1.5s.7-1.3 1.5-1.3 1.3.7 1.3 1.4-.5 1.4-1.3 1.4z"/><path d="m135.8 53.1c0-3.4 2.7-5.6 6-5.6 1.4 0 2.7.4 3.8 1.3 1.1 1 1.8 2.5 1.8 4 0 3.2-2.7 5.6-5.9 5.6-3.1.1-5.7-2.1-5.7-5.3zm9.3.2c0-2.2-1.2-4.3-3.6-4.3-2.1 0-3.4 1.6-3.4 3.7s1.2 4.3 3.5 4.3c2 0 3.5-1.6 3.5-3.7z"/><path d="m149.8 47.8c.5 0 1 0 1.5-.3h.1v1.7c.8-1.1 1.7-1.7 3.2-1.7 1.3 0 2.7.5 3.4 1.6.6.9.6 2.3.6 3.4v3.3c0 1-.1 1.8.9 2.4v.1h-3.8v-.1c1-.6.9-1.4.9-2.4v-3c0-2.4-.7-3.6-2.7-3.6s-2.4 1.4-2.4 2.7v4c0 1-.1 1.8.9 2.4v.1h-3.8v-.1c1-.6.9-1.4.9-2.4v-5.4c0-1 .1-1.9-.9-2.4v-.1h1.2z"/><path d="m167.7 49.7c-.8-.4-1.8-.7-2.8-.7-.7 0-2.1.2-2.1 1.1 0 2 6.1 1.3 6.1 4.9 0 2.1-2.1 3.5-5 3.5-1 0-2-.2-2.9-.5l-.8-2.2c1.3.8 2.7 1.3 4.2 1.3.9 0 2.5-.3 2.5-1.5 0-2.3-6.1-1.6-6.1-5 0-2.4 2.5-3 4.4-3 .8 0 1.7.1 2.5.3z"/></g><path d="m51.8 33.4c0 2.4-1.9 4.3-4.3 4.3s-4.3-1.9-4.3-4.3 1.9-4.3 4.3-4.3 4.3 1.9 4.3 4.3z" fill="#1eb9ec"/><path d="m43.5 47.5c0 2.7-2.2 4.8-4.8 4.8-2.7 0-4.8-2.2-4.8-4.8 0-2.7 2.2-4.8 4.8-4.8 2.7 0 4.8 2.1 4.8 4.8z" fill="#1eb9ec"/><path d="m69.3 31.7c0 2.7-2.2 4.8-4.8 4.8s-4.8-2.2-4.8-4.8c0-2.7 2.2-4.8 4.8-4.8s4.8 2.1 4.8 4.8z" fill="#1eb9ec"/><path d="m59.9 30.9c0 2.4-1.9 4.3-4.3 4.3s-4.3-1.9-4.3-4.3 1.9-4.3 4.3-4.3c2.4-.1 4.3 1.9 4.3 4.3z" fill="#1eb9ec"/><path d="m51.1 53c0 3.1-2.5 5.6-5.6 5.6s-5.6-2.5-5.6-5.6 2.5-5.6 5.6-5.6 5.6 2.5 5.6 5.6z" fill="#1eb9ec"/><path d="m45.8 39.2c0 2.3-1.9 4.3-4.3 4.3-2.3 0-4.3-1.9-4.3-4.3 0-2.3 1.9-4.3 4.3-4.3s4.3 1.9 4.3 4.3z" fill="#1eb9ec"/><path d="m14 2c6.8 0 10.6 3.6 10.6 8.2 0 4.5-3.9 8-8.1 9l7.3 9.2c2.1 2.7 5.4 5.3 8.3 7.1h-4.7c-2.7 0-4.4-.7-5.9-2.6l-6.2-7.7-4.7-7.2c4.1-.6 8.8-2.5 8.8-7.3 0-3.7-3.2-5.8-6.6-5.7-1.2.1-2.3.2-3.5.4v22.8c0 2.3-.3 6.1 2.3 7v.2h-9.8v-.2c2.6-.9 2.2-4.7 2.2-7v-19c0-2.3.4-6.1-2.2-7v-.2z" fill="#4d3f55"/><path d="m35 31.9c-.9 1.1-2.2 2.4-.1 3.5v.2h-8.3v-.2l10.9-12.1-5.3-6.8c-1.2-1.7-2.6-3.2-4.3-4.2v-.2h3.9c1.7 0 3.2.4 4.5 2.1l4.4 5.9 3.3-3.9c1-1.2 2.5-3.1 0-3.9v-.2h8.5l-9.4 10.9 28.4 35.6h-4.7c-1.5 0-2.4-1-3.2-2.1l-23.8-30.3z" fill="#4d3f55"/><path d="m71.4 41.3c0 3.2-2.6 5.9-5.9 5.9-3.2 0-5.9-2.6-5.9-5.9 0-3.2 2.6-5.9 5.9-5.9s5.9 2.6 5.9 5.9z" fill="#1eb9ec"/><path d="m56.7 56.2c-3.6 0-6.4-2.9-6.4-6.4 0-3.6 2.9-6.4 6.4-6.4s6.4 2.9 6.4 6.4c.1 3.5-2.8 6.4-6.4 6.4z" fill="#1eb9ec"/></svg>