<?xml version="1.0" encoding="UTF-8"?>
<svg width="30px" height="25px" viewBox="0 0 30 25" version="1.1" xmlns="http://www.w3.org/2000/svg" xmlns:xlink="http://www.w3.org/1999/xlink">
    <!-- Generator: Sketch 42 (36781) - http://www.bohemiancoding.com/sketch -->
    <title>rx-mark</title>
    <desc>Created with Sketch.</desc>
    <defs>
        <polygon id="path-1" points="0 0.134028169 0 14.5872676 13.0037324 14.5872676 13.0037324 0.134028169 0 0.134028169"></polygon>
        <polygon id="path-3" points="0.133309859 20.2816901 19.3941549 20.2816901 19.3941549 0.257830986 0.133309859 0.257830986 0.133309859 20.2816901"></polygon>
    </defs>
    <g id="Dashboard" stroke="none" stroke-width="1" fill="none" fill-rule="evenodd">
        <g id="Initial-State" transform="translate(-15.000000, -79.000000)">
            <g id="Header" transform="translate(0.000000, 64.000000)">
                <g id="rx-mark" transform="translate(15.000000, 15.000000)">
                    <path d="M21.5108028,13.9506338 C21.5108028,14.9803521 20.6758732,15.8148592 19.6465775,15.8148592 C18.6168592,15.8148592 17.7823521,14.9803521 17.7823521,13.9506338 C17.7823521,12.921338 18.6168592,12.0864085 19.6465775,12.0864085 C20.6758732,12.0864085 21.5108028,12.921338 21.5108028,13.9506338" id="Fill-1" fill="#1DBAED"></path>
                    <path d="M17.9513662,20.0295634 C17.9513662,21.1818169 17.0171408,22.1156197 15.8648873,22.1156197 C14.7130563,22.1156197 13.778831,21.1818169 13.778831,20.0295634 C13.778831,18.8773099 14.7130563,17.9430845 15.8648873,17.9430845 C17.0171408,17.9430845 17.9513662,18.8773099 17.9513662,20.0295634" id="Fill-3" fill="#1DBAED"></path>
                    <path d="M29.069831,13.2376056 C29.069831,14.3898592 28.1356056,15.323662 26.9837746,15.323662 C25.8315211,15.323662 24.8972958,14.3898592 24.8972958,13.2376056 C24.8972958,12.0853521 25.8315211,11.1515493 26.9837746,11.1515493 C28.1356056,11.1515493 29.069831,12.0853521 29.069831,13.2376056" id="Fill-5" fill="#1DBAED"></path>
                    <path d="M25.0213521,12.869493 C25.0213521,13.8992113 24.1864225,14.7337183 23.1571268,14.7337183 C22.1274085,14.7337183 21.2929014,13.8992113 21.2929014,12.869493 C21.2929014,11.8401972 22.1274085,11.0052676 23.1571268,11.0052676 C24.1864225,11.0052676 25.0213521,11.8401972 25.0213521,12.869493" id="Fill-7" fill="#1DBAED"></path>
                    <path d="M21.212831,22.3989296 C21.212831,23.7223099 20.1395915,24.7955493 18.8157887,24.7955493 C17.4919859,24.7955493 16.4187465,23.7223099 16.4187465,22.3989296 C16.4187465,21.0747042 17.4919859,20.0018873 18.8157887,20.0018873 C20.1395915,20.0018873 21.212831,21.0747042 21.212831,22.3989296" id="Fill-9" fill="#1DBAED"></path>
                    <path d="M18.9419155,16.4372113 C18.9419155,17.4487606 18.1217746,18.2689014 17.1098028,18.2689014 C16.0982535,18.2689014 15.2781127,17.4487606 15.2781127,16.4372113 C15.2781127,15.4252394 16.0982535,14.6055211 17.1098028,14.6055211 C18.1217746,14.6055211 18.9419155,15.4252394 18.9419155,16.4372113" id="Fill-11" fill="#1DBAED"></path>
                    <g id="Group-15" transform="translate(0.000000, 0.288507)">
                        <mask id="mask-2" fill="white">
                            <use xlink:href="#path-1"></use>
                        </mask>
                        <g id="Clip-14"></g>
                        <path d="M5.2278169,0.134028169 C8.17119718,0.134028169 9.77471831,1.6716338 9.77471831,3.67064789 C9.77471831,5.60332394 8.08330986,7.11895775 6.28204225,7.53642254 L9.44514085,11.5120563 C10.3675352,12.654169 11.751338,13.7962817 13.0037324,14.5872676 L10.9827465,14.5872676 C9.81823944,14.5872676 9.09359155,14.3016338 8.43485915,13.4890986 L5.75471831,10.1721972 L3.73415493,7.07501408 C5.49147887,6.81135211 7.53401408,5.9988169 7.53401408,3.93388732 C7.53401408,2.35233803 6.1721831,1.42994366 4.70049296,1.49585915 C4.19514085,1.51783099 3.7121831,1.58374648 3.20683099,1.6716338 L3.20683099,11.5120563 C3.20683099,12.522338 3.07542254,14.1258592 4.19514085,14.5213521 L4.19514085,14.5872676 L-0.000211267605,14.5872676 L-0.000211267605,14.5213521 C1.12035211,14.1258592 0.966549296,12.5003662 0.966549296,11.5120563 L0.966549296,3.23121127 C0.966549296,2.22092958 1.12035211,0.617408451 -0.000211267605,0.199943662 L-0.000211267605,0.134028169 L5.2278169,0.134028169 Z" id="Fill-13" fill="#FEFEFE" mask="url(#mask-2)"></path>
                    </g>
                    <g id="Group-18" transform="translate(10.563380, 4.513859)">
                        <mask id="mask-4" fill="white">
                            <use xlink:href="#path-3"></use>
                        </mask>
                        <g id="Clip-17"></g>
                        <path d="M3.73542254,8.7803662 C3.33992958,9.24177465 2.76908451,9.83459155 3.69147887,10.296 L3.69147887,10.3619155 L0.133309859,10.3619155 L0.133309859,10.296 L4.83359155,5.06839437 L2.57133803,2.12501408 C2.04401408,1.39994366 1.45119718,0.740788732 0.704577465,0.323746479 L0.704577465,0.257830986 L2.37401408,0.257830986 C3.1206338,0.257830986 3.73542254,0.433605634 4.30669014,1.18022535 L6.19542254,3.70614085 L7.62359155,2.01515493 C8.06260563,1.48783099 8.69978873,0.675295775 7.62359155,0.323746479 L7.62359155,0.257830986 L11.2696479,0.257830986 L7.18415493,4.95853521 L19.3941549,20.2817746 L17.3600704,20.2817746 C16.701338,20.2817746 16.3273944,19.8643099 15.9762676,19.3809296 L5.80035211,6.36430986 L3.73542254,8.7803662 Z" id="Fill-16" fill="#FEFEFE" mask="url(#mask-4)"></path>
                    </g>
                    <path d="M29.9576197,17.3562254 C29.9576197,18.7535493 28.8248028,19.8863662 27.4274789,19.8863662 C26.0301549,19.8863662 24.897338,18.7535493 24.897338,17.3562254 C24.897338,15.9589014 26.0301549,14.8260845 27.4274789,14.8260845 C28.8248028,14.8260845 29.9576197,15.9589014 29.9576197,17.3562254" id="Fill-19" fill="#1DBAED"></path>
                    <path d="M23.6281268,23.7914789 C22.0968592,23.7914789 20.8512254,22.5458451 20.8512254,21.015 C20.8512254,19.4837324 22.0968592,18.2376761 23.6281268,18.2376761 C25.1593944,18.2376761 26.4050282,19.4837324 26.4050282,21.015 C26.4050282,22.5458451 25.1593944,23.7914789 23.6281268,23.7914789" id="Fill-21" fill="#1DBAED"></path>
                </g>
            </g>
        </g>
    </g>
</svg>